<svg viewBox="0 0 300 100" width="100%" height="100%" xmlns="http://www.w3.org/2000/svg">
  <g transform="translate(10, 10) scale(0.8)">
    <g fill="#1e293b" stroke="#1e293b" stroke-linecap="round" stroke-linejoin="round">
      
    <path d="M 25 35 L 45 35 L 40 65 C 40 70 30 70 30 65 Z" fill="none" stroke-width="6" stroke-linejoin="round" />
    <path d="M 45 42 C 52 42 52 52 43 52" fill="none" stroke-width="6" stroke-linecap="round" />
    <path d="M 55 25 L 75 25 L 70 55 C 70 60 60 60 60 55 Z" fill="none" stroke-width="6" stroke-linejoin="round" />
    <path d="M 75 32 C 82 32 82 42 73 42" fill="none" stroke-width="6" stroke-linecap="round" />
    <path d="M 33 25 C 33 15 36 20 36 10 M 63 15 C 63 5 66 10 66 0" fill="none" stroke-width="4" stroke-linecap="round" opacity="0.5" />
  
    </g>
  </g>
  <text x="100" y="56" font-family="'Inter', -apple-system, sans-serif" font-weight="700" font-size="32" letter-spacing="-0.02em" fill="#1e293b">
    Buddy
  </text>
</svg>