<svg viewBox="0 0 120 120" width="100%" height="100%" xmlns="http://www.w3.org/2000/svg">
  <rect width="120" height="120" rx="30" fill="#ffffff"/>
  <g transform="translate(10, 10)">
    <g fill="#1e293b" stroke="#1e293b" stroke-linecap="round" stroke-linejoin="round">
      
    <path d="M 50 75 L 50 25 L 50 80" fill="none" stroke-width="6" stroke-linecap="round" />
    <path d="M 50 75 C 35 75 20 70 20 60 L 20 20 C 35 30 50 25 50 25" fill="none" stroke-width="6" stroke-linejoin="round" />
    <path d="M 50 75 C 65 75 80 70 80 60 L 80 20 C 65 30 50 25 50 25" fill="none" stroke-width="6" stroke-linejoin="round" />
    <path d="M 30 40 L 40 40 M 30 55 L 40 55 M 60 40 L 70 40 M 60 55 L 70 55" fill="none" stroke-width="4" stroke-linecap="round" opacity="0.5" />
  
    </g>
  </g>
</svg>